<svg xmlns="http://www.w3.org/2000/svg" viewBox="0 0 204.57 193.01"><defs><style>.cls-1{fill:#ad3b1d;}.cls-2{fill:#c74926;}.cls-3{fill:#924530;}</style></defs><g id="Layer_2" data-name="Layer 2"><g id="Layer_1-2" data-name="Layer 1"><path class="cls-1" d="M4.49,8.62c6-6.54,13.2-7.9,21.31-5,8.65,3.14,16.47,8,24.18,12.86,2.87,1.83,3.56,1.17,3.76-1.88C54.19,7.93,56,2.07,63.68.36c6.66-1.49,13,1.69,17.62,8.6,3.18,4.71,5.46,9.87,8,15.51,2.88-4.27,5.92-7.86,10.9-9A19.75,19.75,0,0,1,113.76,17a22.3,22.3,0,0,1,11.58,12.49c1.33,3.59,2.58,7.21,3.6,10.89s1.66,7.39,2.5,11.25c1.68-.25,2.28-1.56,3.1-2.45,6.14-6.66,13.53-9.07,22.13-5.9C165.79,46.6,171.72,53,172.87,63c1.07,9.29.33,18.56-2.13,29,4.91-4.59,9.62-6.88,15.33-6.12a21.3,21.3,0,0,1,14,7.9,18,18,0,0,1,4.35,10.42A66.31,66.31,0,0,1,200.19,133c-4.25,10.74-12.75,17.13-22.72,22-3.15-2.71-6.22-5.53-9.49-8.09-2.23-1.74-2.88-3.47-2.36-6.39.37-2,2.46-4.34.37-6.93a10.39,10.39,0,0,0-2.26,5.77c-.2,2.27-1.12,3-3.08,1.14-8.92-8.46-19.51-14.91-28.46-23.37-2-1.87-2.78-3.43-1.53-6,2.31-4.77,3.77-9.89,5.91-14.76,1.45-3.3,2.92-6.93,2.93-11.64-2.28,2.22-2.67,4.36-3.39,6.33-2.28,6.22-4.6,12.44-6.86,18.67-.85,2.34-1.76,3.33-4.13,1.23-9.6-8.49-19.3-16.86-29-25.23-1.94-1.67-2-3.09-1-5.57,3.05-7.5,5.54-15.23,8.3-22.85.38-1,.65-2.12-.57-2.48-1.37-.4-1.51,1-1.71,1.88-1.64,7.65-5.46,14.55-7.48,22.05-1,3.8-2.32,4.22-5.26,1.57-6.8-6.12-13.64-12.21-20.74-18-4-3.28-7.56-6.3-5-12.15.31-.7.82-2-.85-2.73-2.25,2-1,7.58-6.2,6.85C38.83,38.79,21.86,23.48,4.49,8.62ZM166,131.67c.63-.23,1.15-.26,1.4-.53.46-.51.5-1.2-.24-1.47-.27-.11-.89.27-1.1.59S166,131,166,131.67ZM63.26,45.12l0-.4H62.9l0,.57Z"/><path class="cls-2" d="M4.49,8.62c17.37,14.86,34.34,30.17,51.1,45.73.38.83,2.59,1.35.6,2.57-1.41.85-3.15,1.16-4.56,2-2.59,1.57-6.25,1.22-8,4.41a99.45,99.45,0,0,0,13.1-4.2,4.52,4.52,0,0,1,5.38.88Q74.63,71.14,87.35,82c2.71,2.3,2.24,3.21-.76,4.67-7,3.4-13.82,7.18-20.68,10.85-.89.48-2.79.54-2,2.18s2,.36,2.94-.17C74.05,95.69,81.31,92,88.36,88c2.62-1.5,4.38-1.41,6.58.64q13.65,12.75,27.55,25.24c2.18,2,2,3-.48,4.29-5.16,2.65-10.34,5.29-15.41,8.12-2.59,1.44-5.63,2.38-7.08,5.52A193.27,193.27,0,0,0,121.3,120.5c4.21-2.63,6.87-2,10.3,1.21,7.48,7.06,15.54,13.48,22.65,21,4,4.18,4.27,3.86-.58,6.36-.57.3-1,.91.09,2.23,6.59-5.67,10.35.27,14.77,4,1.66,1.39,3.25,2.85,4.88,4.28-6,22.7-24,32.5-47.72,33.43-15.75.62-24.17-16.28-16-31.21a90,90,0,0,1-27,5.87c-9.16.48-16.14-3.53-21.22-10.84-5.45-7.85-5.23-15.79.24-23.68,1-1.5,2.2-2.92,3.81-5a120.7,120.7,0,0,1-19-1.84c-5.62-1.09-11-2.64-15.29-6.75-9-8.53-8.9-19.13.58-29.42A89.7,89.7,0,0,1,14,83.72a16.94,16.94,0,0,1-8.31-8.93c-3.08-7.4.1-14.58,7.65-17.25,2.31-.81,4.69-1.44,7.47-2.28C14.49,46.86,7.58,39.41,2.79,30.47-1.3,22.84-1,15.52,4.49,8.62ZM150.16,151.28l.63-.09h-.64a6,6,0,0,0-1.45-.16c-.93.1-2.08-.15-2.53,1a1.35,1.35,0,0,0,.5,1.19c1.09.66,1.81-.14,2.51-.85C149.52,152,149.83,151.65,150.16,151.28Z"/><path class="cls-3" d="M173.41,159.56c-1.63-1.43-3.22-2.89-4.88-4.28-4.42-3.73-8.18-9.67-14.77-4-1.06-1.32-.66-1.93-.09-2.23,4.85-2.5,4.54-2.18.58-6.36-7.11-7.5-15.17-13.92-22.65-21-3.43-3.22-6.09-3.84-10.3-1.21a193.27,193.27,0,0,1-21.78,11.28c1.45-3.14,4.49-4.08,7.08-5.52,5.07-2.83,10.25-5.47,15.41-8.12,2.44-1.25,2.66-2.33.48-4.29q-13.9-12.48-27.55-25.24c-2.2-2-4-2.14-6.58-.64-7,4-14.31,7.72-21.48,11.56-1,.53-2.19,1.7-2.94.17s1.08-1.7,2-2.18c6.86-3.67,13.68-7.45,20.68-10.85,3-1.46,3.47-2.37.76-4.67Q74.6,71.17,62.12,60a4.52,4.52,0,0,0-5.38-.88,99.45,99.45,0,0,1-13.1,4.2c1.74-3.19,5.4-2.84,8-4.41,1.41-.85,3.15-1.16,4.56-2,2-1.22-.22-1.74-.6-2.57,5.2.73,3.95-4.85,6.2-6.85,1.67.77,1.16,2,.85,2.73-2.56,5.85,1,8.87,5,12.15,7.1,5.76,13.94,11.85,20.74,18,2.94,2.65,4.23,2.23,5.26-1.57,2-7.5,5.84-14.4,7.48-22.05.2-.9.34-2.28,1.71-1.88,1.22.36,1,1.44.57,2.48-2.76,7.62-5.25,15.35-8.3,22.85-1,2.48-.92,3.9,1,5.57,9.7,8.37,19.4,16.74,29,25.23,2.37,2.1,3.28,1.11,4.13-1.23,2.26-6.23,4.58-12.45,6.86-18.67.72-2,1.11-4.11,3.39-6.33,0,4.71-1.48,8.34-2.93,11.64-2.14,4.87-3.6,10-5.91,14.76-1.25,2.58-.43,4.14,1.53,6,8.95,8.46,19.54,14.91,28.46,23.37,2,1.86,2.88,1.13,3.08-1.14a10.39,10.39,0,0,1,2.26-5.77c2.09,2.59,0,4.91-.37,6.93-.52,2.92.13,4.65,2.36,6.39,3.27,2.56,6.34,5.38,9.49,8.09,5.31,4.48,10.55,9.06,16,13.41,2.07,1.67,2,2.78.36,4.76-1.78,2.15-2.91,1.78-4.73.12C183.94,168.64,178.64,164.14,173.41,159.56Z"/><path class="cls-3" d="M166,131.67c0-.63-.14-1.13.06-1.41s.83-.7,1.1-.59c.74.27.7,1,.24,1.47C167.16,131.41,166.64,131.44,166,131.67Z"/><path class="cls-3" d="M63.26,45.12l-.33.18,0-.57h.39Z"/><path class="cls-3" d="M150.16,151.28c-.33.37-.64.75-1,1.1-.7.71-1.42,1.51-2.51.85a1.35,1.35,0,0,1-.5-1.19c.45-1.15,1.6-.9,2.53-1a6,6,0,0,1,1.45.16Z"/><path class="cls-3" d="M150.15,151.2h.64l-.63.09Z"/></g></g></svg>